<svg width="663" height="619" viewBox="0 0 663 619" fill="none" xmlns="http://www.w3.org/2000/svg">
<path d="M371.83 0.100098C367.27 9.6301 364.99 14.3901 360.43 23.9201H333.85C341.66 29.8101 345.57 32.7501 353.38 38.6401C348.82 48.1701 346.54 52.9301 341.98 62.4601C351.37 56.5701 356.07 53.6301 365.46 47.7401C373.27 53.6301 377.18 56.5701 384.99 62.4601C382.98 52.9301 381.97 48.1701 379.96 38.6401C389.35 32.7501 394.05 29.8101 403.44 23.9201H376.86C374.85 14.3901 373.84 9.6301 371.83 0.100098ZM185.12 101.16C194.51 95.2701 199.21 92.3301 208.6 86.4401C216.41 92.3301 220.32 95.2701 228.13 101.16C226.12 91.6301 225.11 86.8701 223.1 77.3401C232.49 71.4501 237.19 68.5101 246.58 62.6201H220C217.99 53.0901 216.98 48.3301 214.97 38.8001C210.41 48.3301 208.13 53.0901 203.57 62.6201H176.99C184.8 68.5101 188.71 71.4501 196.52 77.3401C191.96 86.8701 189.68 91.6301 185.12 101.16ZM67.49 199.9C76.88 194.01 81.58 191.07 90.97 185.18C98.78 191.07 102.69 194.01 110.5 199.9C108.49 190.37 107.48 185.61 105.47 176.08C114.86 170.19 119.56 167.25 128.95 161.36H102.37C100.36 151.83 99.35 147.07 97.34 137.54C92.78 147.07 90.5 151.83 85.94 161.36H59.36C67.17 167.25 71.08 170.19 78.89 176.08C74.33 185.61 72.05 190.37 67.49 199.9ZM46.25 317.41C55.64 311.52 60.34 308.58 69.73 302.69H43.15C41.14 293.16 40.13 288.4 38.12 278.87C33.56 288.4 31.28 293.16 26.72 302.69H0.140015C7.95001 308.58 11.86 311.52 19.67 317.41C15.11 326.94 12.83 331.7 8.27001 341.23C17.66 335.34 22.36 332.4 31.75 326.51C39.56 332.4 43.47 335.34 51.28 341.23C49.27 331.7 48.26 326.94 46.25 317.41ZM65.53 443.91C63.52 434.38 62.51 429.62 60.5 420.09C55.94 429.62 53.66 434.38 49.1 443.91H22.52C30.33 449.8 34.24 452.74 42.05 458.63C37.49 468.16 35.21 472.92 30.65 482.45C40.04 476.56 44.74 473.62 54.13 467.73C61.94 473.62 65.85 476.56 73.66 482.45C71.65 472.92 70.64 468.16 68.63 458.63C78.02 452.74 82.72 449.8 92.11 443.91H65.53ZM158.48 541.75C156.47 532.22 155.46 527.46 153.45 517.93C148.89 527.46 146.61 532.22 142.05 541.75H115.47C123.28 547.64 127.19 550.58 135 556.47C130.44 566 128.16 570.76 123.6 580.29C132.99 574.4 137.69 571.46 147.08 565.57C154.89 571.46 158.8 574.4 166.61 580.29C164.6 570.76 163.59 566 161.58 556.47C170.97 550.58 175.67 547.64 185.06 541.75H158.48ZM518.32 38.8001C513.76 48.3301 511.48 53.0901 506.92 62.6201H480.34C488.15 68.5101 492.06 71.4501 499.87 77.3401C495.31 86.8701 493.03 91.6301 488.47 101.16C497.86 95.2701 502.56 92.3301 511.95 86.4401C519.76 92.3301 523.67 95.2701 531.48 101.16C529.47 91.6301 528.46 86.8701 526.45 77.3401C535.84 71.4501 540.54 68.5101 549.93 62.6201H523.35C521.34 53.0901 520.33 48.3301 518.32 38.8001ZM579.66 199.9C589.05 194.01 593.75 191.07 603.14 185.18C610.95 191.07 614.86 194.01 622.67 199.9C620.66 190.37 619.65 185.61 617.64 176.08C627.03 170.19 631.73 167.25 641.12 161.36H614.54C612.53 151.83 611.52 147.07 609.51 137.54C604.95 147.07 602.67 151.83 598.11 161.36H571.53C579.34 167.25 583.25 170.19 591.06 176.08C586.5 185.61 584.22 190.37 579.66 199.9ZM662.52 302.69H635.94C633.93 293.16 632.92 288.4 630.91 278.87C626.35 288.4 624.07 293.16 619.51 302.69H592.93C600.74 308.58 604.65 311.52 612.46 317.41C607.9 326.94 605.62 331.7 601.06 341.23C610.45 335.34 615.15 332.4 624.54 326.51C632.35 332.4 636.26 335.34 644.07 341.23C642.06 331.7 641.05 326.94 639.04 317.41C648.43 311.52 653.13 308.58 662.52 302.69ZM575.74 443.91C573.73 434.38 572.72 429.62 570.71 420.09C566.15 429.62 563.87 434.38 559.31 443.91H532.73C540.54 449.8 544.45 452.74 552.26 458.63C547.7 468.16 545.42 472.92 540.86 482.45C550.25 476.56 554.95 473.62 564.34 467.73C572.15 473.62 576.06 476.56 583.87 482.45C581.86 472.92 580.85 468.16 578.84 458.63C588.23 452.74 592.93 449.8 602.32 443.91H575.74ZM456.6 541.75C454.59 532.22 453.58 527.46 451.57 517.93C447.01 527.46 444.73 532.22 440.17 541.75H413.59C421.4 547.64 425.31 550.58 433.12 556.47C428.56 566 426.28 570.76 421.72 580.29C431.11 574.4 435.81 571.46 445.2 565.57C453.01 571.46 456.92 574.4 464.73 580.29C462.72 570.76 461.71 566 459.7 556.47C469.09 550.58 473.79 547.64 483.18 541.75H456.6ZM300.36 579.87C298.35 570.34 297.34 565.58 295.33 556.05C290.77 565.58 288.49 570.34 283.93 579.87H257.35C265.16 585.76 269.07 588.7 276.88 594.59C272.32 604.12 270.04 608.88 265.48 618.41C274.87 612.52 279.57 609.58 288.96 603.69C296.77 609.58 300.68 612.52 308.49 618.41C306.48 608.88 305.47 604.12 303.46 594.59C312.85 588.7 317.55 585.76 326.94 579.87H300.36Z" fill="#FBBD16"/>
<path d="M333.33 187.29L325.73 227.7L324.31 228.05H261.36C235.91 228.05 213.14 233.17 201.75 242.21C190.36 251.25 185.01 256.61 174.96 285.07C164.91 313.53 166.25 330.03 166.25 338.19C166.25 346.35 172.28 360.2 189.02 363.82C192.73 364.62 196.59 365.24 200.46 365.73C199.86 363.41 199.6 360.51 200.26 357.18C202.05 348.25 204.5 329.05 212.76 312.53C221.02 296.01 228.39 284.62 257.41 283.06C286.43 281.5 328.85 281.72 328.85 281.72L336.7 244.22V187.29H333.32H333.33Z" fill="url(#paint0_linear_3535_149)"/>
<path d="M131.85 399.59C131.85 399.59 168.35 421.69 179.74 428.17C191.13 434.64 211.89 434.42 211.89 434.42H298.06L306.54 395.03L300.62 367.45H299.17L287.99 411.02H171.48C155.24 411.02 131.85 399.59 131.85 399.59Z" fill="#6D6E71"/>
<path d="M336.71 187.29L328.75 230.82H265.8C240.35 230.82 217.58 233.16 206.19 242.21C194.8 251.25 189.45 256.61 179.4 285.07C169.35 313.53 170.69 330.03 170.69 338.19C170.69 346.35 176.72 360.2 193.46 363.82C210.2 367.44 229.96 367.44 240.34 367.44H300.62L288.91 414.85H183.09C154.29 414.85 144.9 408.07 131.84 399.59C124.55 394.86 105.72 374.48 107.06 337.31C108.4 300.14 121.46 258.28 135.86 236.18C150.26 214.08 164.66 204.7 180.73 197.34C196.8 189.97 216.9 187.96 242.35 187.96C267.8 187.96 336.7 187.29 336.7 187.29H336.71Z" fill="#F1F2F2"/>
<path d="M544.42 221.76L545.91 229.53L511.58 278.74L528.94 317.45L492.26 355.04L383.11 354.07L375.87 369.52L516.9 414.83L483.57 434.4H347.1C330.32 434.4 325.93 428.14 321.98 417.03C318.03 405.92 319.25 388.07 319.25 388.07L333.11 346.82V317.44L347.09 275.35L348.28 248.66L349.14 248.16C349.14 248.16 398.77 221.57 432.49 221.57C466.21 221.57 544.41 221.74 544.41 221.74L544.42 221.76Z" fill="#21485D"/>
<path d="M394.72 187.29C377.75 187.29 359.22 194.43 354.54 218.32C349.85 242.21 348.29 248.68 348.29 248.68H407.91C407.91 248.68 408.25 243.08 410.82 238.38C413.67 233.17 416.3 229.53 425.7 229.53H545.92L553.9 187.28H394.73L394.72 187.29Z" fill="#75C9EF"/>
<path d="M333.11 317.47H528.94L536.28 274.76H342.29L333.11 317.47Z" fill="#75C9EF"/>
<path d="M386.51 355.13C387.19 349.44 388.4 345.7 388.4 345.7H327.14L320.09 379C316.48 403.82 326.82 414.84 343.79 414.84H516.9L524.44 368.63H397.2C388.25 368.63 385.42 364.39 386.52 355.12L386.51 355.13Z" fill="#75C9EF"/>
<path d="M232.82 496.17C230.32 496.17 228.17 495.71 226.35 494.8C224.54 493.88 223.14 492.59 222.16 490.93C221.18 489.26 220.69 487.3 220.69 485.04C220.69 482.04 221.34 479.37 222.64 477.02C223.94 474.67 225.74 472.83 228.06 471.48C230.37 470.13 233.01 469.46 235.97 469.46C238.4 469.46 240.49 469.9 242.24 470.78C243.99 471.66 245.34 472.97 246.31 474.7L243.31 476.45C242.58 475.12 241.57 474.14 240.29 473.5C239.01 472.87 237.47 472.55 235.67 472.55C233.47 472.55 231.51 473.08 229.78 474.15C228.05 475.21 226.69 476.67 225.71 478.52C224.73 480.37 224.24 482.49 224.24 484.89C224.24 487.45 225 489.45 226.51 490.88C228.02 492.31 230.18 493.03 232.98 493.03C234.68 493.03 236.25 492.7 237.7 492.06C239.15 491.41 240.34 490.47 241.27 489.24L243.82 491.19C242.69 492.76 241.14 493.98 239.18 494.86C237.22 495.74 235.1 496.18 232.84 496.18L232.82 496.17Z" fill="#7CCBF1"/>
<path d="M248.27 495.92L253.46 469.71H256.86L255.36 477.45L254.96 476.1C256.12 473.81 257.66 472.12 259.58 471.06C261.5 470 263.88 469.46 266.75 469.46L266.1 472.91C265.93 472.91 265.77 472.91 265.63 472.89C265.48 472.87 265.3 472.86 265.11 472.86C262.31 472.86 260.01 473.67 258.19 475.28C256.38 476.9 255.14 479.34 254.47 482.6L251.82 495.93H248.28L248.27 495.92Z" fill="#7CCBF1"/>
<path d="M278.22 496.17C275.99 496.17 274.01 495.72 272.28 494.82C270.55 493.92 269.2 492.64 268.24 490.98C267.27 489.32 266.79 487.34 266.79 485.04C266.79 482.74 267.16 480.75 267.89 478.85C268.62 476.95 269.65 475.3 270.99 473.88C272.32 472.47 273.89 471.38 275.71 470.61C277.52 469.84 279.5 469.46 281.63 469.46C283.93 469.46 285.87 469.87 287.47 470.68C289.07 471.49 290.3 472.68 291.16 474.22C292.03 475.77 292.46 477.64 292.46 479.84C292.46 483 291.88 485.82 290.71 488.28C289.54 490.74 287.9 492.67 285.77 494.07C283.64 495.47 281.13 496.17 278.23 496.17H278.22ZM278.97 493.02C281.17 493.02 283.12 492.49 284.84 491.45C286.55 490.4 287.9 488.95 288.88 487.08C289.86 485.22 290.35 483.1 290.35 480.74C290.35 478.14 289.59 476.13 288.08 474.7C286.56 473.27 284.44 472.55 281.71 472.55C279.55 472.55 277.6 473.08 275.87 474.15C274.14 475.21 272.78 476.67 271.8 478.52C270.82 480.37 270.33 482.49 270.33 484.89C270.33 487.45 271.09 489.45 272.6 490.88C274.11 492.31 276.24 493.03 278.97 493.03V493.02ZM287.61 495.92L289.11 488.38L290.61 483.09L291.11 477.6L292.71 469.71H296.25L291.01 495.92H287.62H287.61Z" fill="#7CCBF1"/>
<path d="M300.59 483.93L301.19 480.84H314.27L313.67 483.93H300.59Z" fill="#7CCBF1"/>
<path d="M331.89 496.17C329.39 496.17 327.24 495.71 325.42 494.8C323.61 493.88 322.21 492.59 321.23 490.93C320.25 489.26 319.76 487.3 319.76 485.04C319.76 482.04 320.41 479.37 321.71 477.02C323.01 474.67 324.81 472.83 327.13 471.48C329.44 470.13 332.08 469.46 335.04 469.46C337.47 469.46 339.56 469.9 341.31 470.78C343.06 471.66 344.41 472.97 345.38 474.7L342.38 476.45C341.65 475.12 340.64 474.14 339.36 473.5C338.08 472.87 336.54 472.55 334.74 472.55C332.54 472.55 330.58 473.08 328.85 474.15C327.12 475.21 325.76 476.67 324.78 478.52C323.8 480.37 323.31 482.49 323.31 484.89C323.31 487.45 324.07 489.45 325.58 490.88C327.09 492.31 329.25 493.03 332.05 493.03C333.75 493.03 335.32 492.7 336.77 492.06C338.22 491.41 339.41 490.47 340.34 489.24L342.89 491.19C341.76 492.76 340.21 493.98 338.25 494.86C336.29 495.74 334.17 496.18 331.91 496.18L331.89 496.17Z" fill="#7CCBF1"/>
<path d="M346.72 505.85C345.49 505.85 344.31 505.64 343.18 505.23C342.05 504.81 341.15 504.24 340.48 503.51L342.38 500.91C342.95 501.51 343.61 501.97 344.38 502.31C345.15 502.65 346.01 502.81 346.98 502.81C348.11 502.81 349.15 502.5 350.1 501.89C351.05 501.27 352.04 500.17 353.07 498.57L355.72 494.53L356.17 494.03L371.75 469.71H375.39L356.22 499.32C355.12 500.99 354.09 502.29 353.13 503.24C352.16 504.19 351.17 504.86 350.16 505.26C349.15 505.66 348.01 505.86 346.74 505.86L346.72 505.85ZM355.11 496.66L348.37 469.7H351.96L357.85 493.77L355.1 496.67L355.11 496.66Z" fill="#7CCBF1"/>
<path d="M373.15 496.17C372.42 496.17 371.8 495.92 371.3 495.42C370.8 494.92 370.55 494.3 370.55 493.57C370.55 492.74 370.83 492.06 371.4 491.52C371.97 490.99 372.61 490.72 373.35 490.72C374.09 490.72 374.69 490.96 375.17 491.44C375.65 491.92 375.89 492.55 375.89 493.31C375.89 493.88 375.77 494.37 375.52 494.78C375.27 495.2 374.93 495.53 374.5 495.78C374.07 496.03 373.62 496.15 373.15 496.15V496.17Z" fill="#7CCBF1"/>
<path d="M393.9 496.17C391.4 496.17 389.23 495.71 387.38 494.8C385.53 493.89 384.12 492.59 383.14 490.93C382.16 489.26 381.67 487.28 381.67 484.99C381.67 481.99 382.3 479.33 383.57 477C384.84 474.67 386.57 472.83 388.76 471.48C390.96 470.13 393.44 469.46 396.2 469.46C398.53 469.46 400.54 469.9 402.24 470.78C403.94 471.66 405.26 472.94 406.21 474.6C407.16 476.26 407.63 478.26 407.63 480.59C407.63 481.12 407.6 481.67 407.53 482.21C407.46 482.76 407.38 483.29 407.28 483.78H384.26L384.71 481.13H405.63L404.18 482.13C404.51 480.03 404.36 478.27 403.73 476.84C403.1 475.41 402.12 474.32 400.81 473.57C399.49 472.82 397.92 472.45 396.09 472.45C393.96 472.45 392.06 472.97 390.4 474.02C388.74 475.07 387.44 476.51 386.51 478.36C385.58 480.21 385.11 482.36 385.11 484.83C385.11 487.46 385.87 489.48 387.38 490.9C388.89 492.31 391.17 493.02 394.2 493.02C395.96 493.02 397.6 492.73 399.09 492.15C400.59 491.57 401.82 490.76 402.78 489.73L404.38 492.28C403.15 493.51 401.61 494.47 399.76 495.15C397.91 495.83 395.96 496.17 393.89 496.17H393.9Z" fill="#7CCBF1"/>
<path d="M422.08 496.17C419.78 496.17 417.88 495.7 416.36 494.77C414.84 493.84 413.8 492.51 413.24 490.78C412.67 489.05 412.61 487 413.04 484.64L416.04 469.71H419.58L416.59 484.64C416.09 487.24 416.37 489.28 417.44 490.76C418.51 492.24 420.37 492.98 423.03 492.98C425.69 492.98 428.1 492.21 429.95 490.68C431.8 489.15 433.04 486.85 433.67 483.79L436.47 469.71H440.01L434.77 495.92H431.37L432.87 488.38L433.62 489.63C432.39 491.89 430.77 493.55 428.75 494.6C426.74 495.65 424.51 496.17 422.08 496.17Z" fill="#7CCBF1"/>
<defs>
<linearGradient id="paint0_linear_3535_149" x1="166.2" y1="276.51" x2="336.71" y2="276.51" gradientUnits="userSpaceOnUse">
<stop stop-color="#BCBEC0"/>
<stop offset="0.01" stop-color="#BCBEC0"/>
<stop offset="0.12" stop-color="#9EA0A2"/>
<stop offset="0.24" stop-color="#858688"/>
<stop offset="0.37" stop-color="#717274"/>
<stop offset="0.52" stop-color="#626365"/>
<stop offset="0.7" stop-color="#5A5B5D"/>
<stop offset="1" stop-color="#58595B"/>
</linearGradient>
</defs>
</svg>
