<svg width="1045" height="331" viewBox="0 0 1045 331" fill="none" xmlns="http://www.w3.org/2000/svg">
<path d="M124.35 37.42C74.49 37.42 63.14 67.42 54.63 107.95C51.79 120.52 49.77 132.27 49.77 142.41C49.77 164.7 59.9 179.3 93.96 179.3H177.06L169.36 215.78H78.56C21.81 215.78 0.72998 187.4 0.72998 144.03C0.72998 131.87 2.76003 118.09 5.59003 103.9C19.37 34.9899 43.29 0.939941 120.31 0.939941H210.3L202.6 37.42H124.36H124.35Z" fill="white"/>
<path d="M225 82.0099C237.97 20.3899 267.56 0.939941 329.18 0.939941H361.2L353.5 37.42H333.64C295.54 37.42 278.11 56.4699 270 94.5799L244.06 215.78H196.63L225.01 82.0099H225Z" fill="white"/>
<path d="M510.09 0.939941C543.73 0.939941 558.73 22.4199 558.73 48.3699C558.73 53.6399 558.32 58.9099 557.11 64.1799L532.38 179.3C527.11 203.22 516.57 215.78 488.19 215.78H384.01C354.42 215.78 339.01 198.35 339.01 167.95C339.01 161.06 339.01 152.95 340.63 144.85C349.55 104.31 367.79 82.0199 408.33 82.0199H505.62L508.86 68.2399C509.67 64.5899 510.08 61.3499 510.08 58.5099C510.08 44.7299 501.97 37.4299 485.35 37.4299H380.36L388.06 0.949951H510.07L510.09 0.939941ZM418.89 118.5C402.67 118.5 394.57 126.2 389.7 147.28C388.48 152.14 387.67 157.82 387.67 161.47C387.67 173.23 393.35 179.31 405.91 179.31H472.8C480.91 179.31 486.18 175.26 487.8 167.15L497.93 118.51H418.88L418.89 118.5Z" fill="white"/>
<path d="M701.55 37.42C651.69 37.42 640.34 67.42 631.83 107.95C628.99 120.52 626.96 132.27 626.96 142.41C626.96 164.7 637.09 179.3 671.15 179.3H754.25L746.55 215.78H655.75C599 215.78 577.92 187.4 577.92 144.03C577.92 131.87 579.95 118.09 582.79 103.9C596.57 34.9899 620.49 0.939941 697.51 0.939941H787.5L779.8 37.42H701.56H701.55Z" fill="#7CCBF1"/>
<path d="M856.11 285.1H807.87L855.7 214.97L805.44 0.939941H852.87L886.92 167.54L994.75 0.939941H1044.61L856.12 285.1H856.11Z" fill="#7CCBF1"/>
<path d="M152.19 330.03C146.46 330.03 141.58 329.03 137.56 327.03C133.53 325.03 130.45 322.24 128.32 318.64C126.19 315.05 125.12 310.87 125.12 306.12C125.12 301.37 125.93 297 127.55 292.87C129.17 288.74 131.51 285.1 134.56 281.97C137.61 278.84 141.26 276.39 145.5 274.63C149.74 272.87 154.54 272 159.89 272C164.59 272 168.75 272.76 172.37 274.27C175.99 275.78 178.77 277.97 180.72 280.84L174.89 285.87C173.21 283.71 171.08 282.06 168.49 280.92C165.89 279.79 162.84 279.22 159.33 279.22C155.28 279.22 151.64 279.91 148.43 281.29C145.21 282.67 142.47 284.59 140.2 287.05C137.93 289.51 136.2 292.33 135.01 295.52C133.82 298.71 133.23 302.09 133.23 305.65C133.23 309.21 133.97 312.04 135.46 314.61C136.94 317.18 139.13 319.19 142.03 320.65C144.92 322.11 148.5 322.84 152.77 322.84C156.23 322.84 159.4 322.27 162.29 321.14C165.18 320 167.73 318.33 169.95 316.11L174.65 321.46C172.05 324.33 168.81 326.47 164.92 327.9C161.03 329.33 156.79 330.05 152.19 330.05V330.03Z" fill="white"/>
<path d="M181.36 329.38L192.71 272.64H213.87C220.51 272.64 225.66 274.1 229.31 277.02C232.96 279.94 234.78 284.02 234.78 289.26C234.78 294.01 233.71 298.09 231.58 301.5C229.45 304.91 226.38 307.51 222.38 309.32C218.38 311.13 213.62 312.03 208.11 312.03H189.55L193.68 308.3L189.55 329.38H181.36ZM193.52 309.2L190.76 305.15H208.35C214.13 305.15 218.63 303.87 221.85 301.3C225.07 298.73 226.67 294.97 226.67 289.99C226.67 286.58 225.51 284.02 223.18 282.29C220.86 280.56 217.5 279.7 213.13 279.7H196.11L200.24 275.56L193.51 309.2H193.52ZM219.54 329.38L207.87 308.79H216.54L228.13 329.38H219.54Z" fill="white"/>
<path d="M232.92 329.38L270.05 272.64H278.08L292.43 329.38H284.41L271.76 277.01H275L241.68 329.38H232.92ZM246.7 315.19L250.27 308.7H282.13L283.27 315.19H246.71H246.7Z" fill="white"/>
<path d="M382.72 286.01C386.56 286.01 389.72 286.77 392.2 288.28C394.68 289.79 396.43 291.99 397.43 294.88C398.43 297.77 398.5 301.24 397.63 305.3L392.85 329.37H385.07L389.85 305.3C390.66 301.41 390.32 298.38 388.84 296.22C387.35 294.06 384.67 292.98 380.78 292.98C376.89 292.98 373.56 294.09 370.97 296.3C368.37 298.52 366.62 301.89 365.7 306.43L361.08 329.37H353.3L358.17 305.3C358.93 301.41 358.56 298.38 357.08 296.22C355.59 294.06 352.91 292.98 349.01 292.98C345.11 292.98 341.8 294.1 339.2 296.34C336.6 298.58 334.85 302.03 333.93 306.67L329.39 329.37H321.61L330.12 286.41H337.58L335.15 298.73L333.69 295.41C335.69 292.17 338.21 289.79 341.27 288.28C344.32 286.77 347.71 286.01 351.44 286.01C354.36 286.01 356.9 286.49 359.06 287.47C361.22 288.45 362.94 289.89 364.21 291.81C365.48 293.73 366.22 296.04 366.44 298.74L362.22 297.93C364.44 293.93 367.29 290.95 370.77 288.97C374.25 286.99 378.24 286.01 382.73 286.01H382.72Z" fill="white"/>
<path d="M424.45 329.87C420.83 329.87 417.59 329.13 414.72 327.64C411.86 326.15 409.6 324.03 407.95 321.28C406.3 318.52 405.48 315.2 405.48 311.31C405.48 307.64 406.09 304.26 407.3 301.18C408.52 298.1 410.22 295.43 412.41 293.16C414.6 290.89 417.18 289.13 420.15 287.89C423.12 286.65 426.34 286.03 429.8 286.03C433.53 286.03 436.69 286.68 439.28 287.97C441.88 289.27 443.87 291.17 445.28 293.68C446.68 296.19 447.39 299.26 447.39 302.88C447.39 308.18 446.47 312.87 444.63 316.94C442.79 321.01 440.16 324.19 436.73 326.46C433.3 328.73 429.2 329.87 424.45 329.87ZM426.15 323.06C429.39 323.06 432.28 322.28 434.82 320.71C437.36 319.14 439.34 317 440.78 314.27C442.21 311.54 442.93 308.42 442.93 304.91C442.93 301.13 441.82 298.17 439.61 296.03C437.39 293.9 434.23 292.83 430.13 292.83C426.94 292.83 424.08 293.6 421.54 295.14C419 296.68 417 298.82 415.54 301.54C414.08 304.27 413.35 307.42 413.35 310.98C413.35 314.54 414.46 317.65 416.67 319.82C418.88 321.98 422.04 323.06 426.15 323.06ZM438.55 329.38L440.82 318.27L443.42 308.3L444.47 298.08L446.74 286.41H454.52L446.01 329.37H438.55V329.38Z" fill="white"/>
<path d="M478.11 329.87C474.49 329.87 471.25 329.13 468.38 327.64C465.52 326.15 463.26 324.03 461.61 321.28C459.96 318.52 459.14 315.2 459.14 311.31C459.14 307.64 459.75 304.26 460.96 301.18C462.18 298.1 463.88 295.43 466.07 293.16C468.26 290.89 470.84 289.13 473.81 287.89C476.78 286.65 480 286.03 483.46 286.03C487.19 286.03 490.35 286.68 492.94 287.97C495.54 289.27 497.53 291.17 498.94 293.68C500.34 296.19 501.05 299.26 501.05 302.88C501.05 306.88 500.54 310.53 499.51 313.82C498.48 317.11 496.96 319.97 494.93 322.37C492.9 324.77 490.48 326.63 487.67 327.92C484.86 329.22 481.67 329.87 478.1 329.87H478.11ZM479.81 323.06C483.05 323.06 485.94 322.28 488.48 320.71C491.02 319.14 493 317 494.44 314.27C495.87 311.54 496.59 308.42 496.59 304.91C496.59 301.13 495.48 298.17 493.27 296.03C491.05 293.9 487.89 292.83 483.79 292.83C480.6 292.83 477.74 293.6 475.2 295.14C472.66 296.68 470.66 298.82 469.2 301.54C467.74 304.27 467.01 307.42 467.01 310.98C467.01 314.54 468.12 317.65 470.33 319.82C472.54 321.98 475.7 323.06 479.81 323.06ZM492.21 329.38L494.48 318.27L496.99 308.3L498.13 298.08L503.88 269.22H511.66L499.66 329.37H492.2L492.21 329.38Z" fill="white"/>
<path d="M533.27 329.87C529.05 329.87 525.41 329.1 522.33 327.56C519.25 326.02 516.87 323.86 515.2 321.07C513.52 318.29 512.69 315 512.69 311.22C512.69 306.36 513.74 302.03 515.85 298.25C517.96 294.47 520.83 291.48 524.48 289.29C528.13 287.1 532.27 286.01 536.92 286.01C540.81 286.01 544.19 286.75 547.05 288.24C549.91 289.72 552.14 291.85 553.74 294.6C555.33 297.35 556.13 300.68 556.13 304.57C556.13 305.54 556.08 306.53 555.97 307.53C555.86 308.53 555.73 309.46 555.56 310.33H518.35L519.32 304.65H551.82L548.66 306.59C549.15 303.56 548.93 301.01 548.01 298.93C547.09 296.85 545.65 295.25 543.67 294.15C541.69 293.05 539.33 292.49 536.58 292.49C533.34 292.49 530.48 293.26 528.03 294.8C525.57 296.34 523.66 298.48 522.31 301.2C520.96 303.93 520.28 307.13 520.28 310.81C520.28 314.7 521.4 317.72 523.64 319.85C525.88 321.98 529.3 323.05 533.89 323.05C536.59 323.05 539.1 322.6 541.43 321.71C543.75 320.82 545.67 319.62 547.19 318.1L550.51 323.69C548.45 325.69 545.89 327.22 542.81 328.27C539.73 329.32 536.54 329.85 533.24 329.85L533.27 329.87Z" fill="white"/>
<path d="M604.61 329.87C600.39 329.87 596.75 329.1 593.67 327.56C590.59 326.02 588.21 323.86 586.54 321.07C584.86 318.29 584.03 315 584.03 311.22C584.03 306.36 585.08 302.03 587.19 298.25C589.3 294.47 592.17 291.48 595.82 289.29C599.47 287.1 603.61 286.01 608.26 286.01C612.15 286.01 615.53 286.75 618.39 288.24C621.25 289.72 623.48 291.85 625.08 294.6C626.67 297.35 627.47 300.68 627.47 304.57C627.47 305.54 627.42 306.53 627.31 307.53C627.2 308.53 627.07 309.46 626.9 310.33H589.69L590.66 304.65H623.16L620 306.59C620.49 303.56 620.27 301.01 619.35 298.93C618.43 296.85 616.99 295.25 615.01 294.15C613.03 293.05 610.67 292.49 607.92 292.49C604.68 292.49 601.82 293.26 599.37 294.8C596.91 296.34 595 298.48 593.65 301.2C592.3 303.93 591.62 307.13 591.62 310.81C591.62 314.7 592.74 317.72 594.98 319.85C597.22 321.98 600.64 323.05 605.23 323.05C607.93 323.05 610.44 322.6 612.77 321.71C615.09 320.82 617.01 319.62 618.53 318.1L621.85 323.69C619.79 325.69 617.23 327.22 614.15 328.27C611.07 329.32 607.88 329.85 604.58 329.85L604.61 329.87Z" fill="white"/>
<path d="M652.08 329.87C648.46 329.87 645.22 329.13 642.35 327.64C639.49 326.15 637.23 324.03 635.58 321.28C633.93 318.52 633.11 315.2 633.11 311.31C633.11 307.64 633.72 304.26 634.93 301.18C636.15 298.1 637.85 295.43 640.04 293.16C642.23 290.89 644.81 289.13 647.78 287.89C650.75 286.65 653.97 286.03 657.43 286.03C661.16 286.03 664.32 286.68 666.91 287.97C669.51 289.27 671.5 291.17 672.91 293.68C674.31 296.19 675.02 299.26 675.02 302.88C675.02 308.18 674.1 312.87 672.26 316.94C670.42 321.02 667.79 324.19 664.36 326.46C660.93 328.73 656.83 329.87 652.08 329.87ZM653.79 323.06C657.03 323.06 659.92 322.28 662.46 320.71C665 319.14 666.98 317 668.42 314.27C669.85 311.54 670.57 308.42 670.57 304.91C670.57 301.13 669.46 298.17 667.25 296.03C665.03 293.9 661.87 292.83 657.77 292.83C654.58 292.83 651.72 293.6 649.18 295.14C646.64 296.68 644.64 298.82 643.18 301.54C641.72 304.27 640.99 307.42 640.99 310.98C640.99 314.54 642.1 317.65 644.31 319.82C646.52 321.98 649.68 323.06 653.79 323.06ZM666.19 329.38L668.46 318.27L671.06 308.3L672.11 298.08L674.38 286.41H682.16L673.65 329.37H666.19V329.38Z" fill="white"/>
<path d="M701.12 329.87C697.5 329.87 694.08 329.4 690.87 328.45C687.66 327.5 685.18 326.33 683.45 324.92L686.94 318.76C688.61 320.06 690.79 321.11 693.47 321.92C696.14 322.73 698.94 323.14 701.86 323.14C705.59 323.14 708.4 322.57 710.29 321.44C712.18 320.31 713.13 318.77 713.13 316.82C713.13 315.41 712.56 314.35 711.43 313.62C710.29 312.89 708.82 312.32 707.01 311.92C705.2 311.52 703.27 311.11 701.21 310.71C699.16 310.3 697.24 309.72 695.46 308.97C693.67 308.21 692.2 307.12 691.04 305.69C689.88 304.26 689.3 302.36 689.3 299.98C689.3 297.11 690.11 294.64 691.73 292.56C693.35 290.48 695.62 288.87 698.54 287.74C701.46 286.61 704.86 286.04 708.75 286.04C711.56 286.04 714.33 286.38 717.06 287.05C719.79 287.72 722.02 288.68 723.75 289.93L720.67 296.09C718.89 294.85 716.89 293.97 714.67 293.46C712.45 292.95 710.24 292.69 708.02 292.69C704.4 292.69 701.67 293.3 699.83 294.52C697.99 295.74 697.07 297.26 697.07 299.1C697.07 300.51 697.64 301.6 698.77 302.38C699.9 303.17 701.38 303.77 703.19 304.21C705 304.64 706.92 305.06 708.95 305.46C710.98 305.87 712.89 306.44 714.71 307.16C716.52 307.89 717.99 308.94 719.13 310.32C720.27 311.7 720.83 313.58 720.83 315.95C720.83 318.92 720 321.45 718.36 323.53C716.71 325.61 714.4 327.19 711.43 328.27C708.46 329.35 705.03 329.89 701.13 329.89L701.12 329.87Z" fill="white"/>
<path d="M738.22 329.38L742.6 307.49L743.57 312.84L727.2 272.63H735.14L748.92 306.35L744.38 306.43L771.62 272.63H780.21L747.87 312.92L750.71 307.49L746.33 329.38H738.22Z" fill="white"/>
</svg>
